<svg width="110" height="51" viewBox="0 0 110 51" fill="none" xmlns="http://www.w3.org/2000/svg">
<g clip-path="url(#clip0_1503_856)">
<path d="M13.0145 30.886C13.3606 30.886 13.6375 31.1587 13.6375 31.4996C13.6375 31.8405 13.3606 32.0451 13.0145 32.0451H7.40718C3.66897 32.0451 1.31529 33.886 1.31529 38.386V43.636C1.31529 47.1815 3.4613 49.7724 7.40718 49.7724H12.9453C13.2914 49.7724 13.6375 49.9769 13.6375 50.3178C13.6375 50.6587 13.3606 50.9315 13.0145 50.9315H7.40718C2.69981 50.9996 0 47.9996 0 43.7042V38.4542C0 32.9996 2.83826 30.886 7.4764 30.886H13.0145Z" fill="white"/>
<path d="M32.6055 31.4996C32.6055 31.1587 32.9516 30.886 33.2977 30.886C33.6439 30.886 33.8515 31.1587 33.9208 31.4996V49.7724H44.0277C44.3739 49.7042 44.72 49.9769 44.72 50.3178V50.386C44.72 50.7269 44.4431 50.9996 44.097 50.9996C44.097 50.9996 44.097 50.9996 44.0277 50.9996H33.8515C33.2285 50.9996 32.6747 50.5224 32.6055 49.9087V49.8405V31.4996Z" fill="white"/>
<path d="M62.9268 31.4996C62.996 31.1587 63.2729 30.886 63.619 30.886C63.9651 30.886 64.2421 31.1587 64.2421 31.4996V44.6587C64.2421 47.9315 66.4573 49.8405 68.7417 49.8405H72.7568C75.3874 49.8405 76.9796 47.7269 76.9796 44.6587V31.5678C76.9796 31.2269 77.2565 30.9542 77.6027 30.886C77.6027 30.886 77.6027 30.886 77.6719 30.886C78.018 30.886 78.2949 31.1587 78.3641 31.4996V44.6587C78.3641 48.4769 76.2874 51.0678 72.8261 51.0678H68.811C65.765 51.0678 63.0652 48.8178 63.0652 44.6587L62.9268 31.4996Z" fill="white"/>
<path d="M103.355 30.886C106.47 30.886 109.1 32.9996 109.1 36.0678C109.1 38.2496 107.785 39.6133 105.916 40.4996C108.27 41.2496 110 42.9542 110 45.5451C110 48.8178 107.231 51.0678 103.908 51.0678H96.0166C95.3935 51.0678 94.8397 50.5905 94.7705 49.9769V49.9087V32.0451C94.7705 31.4314 95.2551 30.886 95.9474 30.886H96.0166H103.355ZM103.355 39.9542C105.777 39.9542 107.854 38.4542 107.854 36.0678C107.854 33.6814 105.777 32.1133 103.355 32.1133H96.0858V40.0224H103.355V39.9542ZM96.0858 41.1133V49.7724H103.839C106.47 49.7724 108.685 48.0678 108.685 45.4769C108.685 42.886 106.47 41.1133 103.839 41.1133H96.0858Z" fill="white"/>
<path d="M20.9751 0C23.398 0 25.8209 0 28.2438 0C29.9052 0 31.4974 0.0681818 33.0896 0.340909C34.3357 0.545455 35.5125 0.886364 36.6894 1.43182C38.7661 2.45455 40.2891 4.5 40.566 6.75C40.7045 7.5 40.7737 8.31818 40.7737 9.13636C40.7737 13.0227 40.7737 16.8409 40.7737 20.7273C40.7737 20.9318 40.8429 21.1364 40.9814 21.2727C42.089 22.3636 43.1966 23.3864 44.235 24.4773C44.858 25.0227 44.9965 25.9773 44.4427 26.6591C44.3042 26.8636 44.0965 27.0682 43.8889 27.2727C43.1966 27.8864 42.089 27.8864 41.466 27.2045C41.466 27.2045 41.466 27.2045 41.3967 27.1364C40.1507 25.8409 38.7661 24.4773 37.4508 23.1818C37.3124 23.0455 37.1739 22.9773 36.9663 22.9773C32.1205 22.9773 27.2746 22.9773 22.4288 22.9773C20.5597 22.9773 18.6906 22.7727 16.8215 22.2955C15.437 21.9545 14.1217 21.2727 13.0141 20.3182C11.6988 19.0909 10.8681 17.4545 10.7296 15.6818C10.6604 15 10.5912 14.3182 10.5912 13.6364C10.5912 9.75 10.5912 5.79545 10.5912 1.90909C10.522 0.954545 11.2142 0.136364 12.1834 0.0681818C12.2526 0.0681818 12.2526 0.0681818 12.3218 0.0681818C12.4603 0 12.668 0 12.8756 0H20.9751ZM36.7586 19.7045V19.3636C36.7586 15.9545 36.7586 12.6136 36.7586 9.20455C36.7586 8.59091 36.6894 7.97727 36.5509 7.36364C36.3432 5.59091 35.0279 4.22727 33.2973 3.75C32.2589 3.47727 31.2205 3.34091 30.1821 3.34091C25.1286 3.34091 20.0059 3.34091 14.9524 3.34091C14.6755 3.34091 14.6063 3.40909 14.6063 3.68182C14.6063 7.02273 14.6063 10.3636 14.6063 13.7045C14.6063 14.3182 14.6755 14.9318 14.7447 15.5455C15.0909 17.5227 16.2677 18.8864 18.206 19.2955C19.106 19.5 20.0059 19.6364 20.9059 19.6364C26.0286 19.7045 31.2205 19.6364 36.3432 19.6364L36.7586 19.7045Z" fill="white"/>
<path d="M95.67 12.9544C93.524 12.9544 91.378 12.9544 89.1627 12.9544C87.9859 12.9544 86.809 12.818 85.7014 12.4089C84.1785 11.9317 83.0016 10.7044 82.7247 9.13621C82.4478 7.63621 82.3786 6.06803 82.5863 4.49985C82.7939 2.86348 83.7631 1.84076 85.2168 1.22712C86.3245 0.749847 87.5705 0.408938 88.8166 0.340756C90.8241 0.136211 92.7625 -0.000152741 94.77 0.0680291C96.5699 0.0680291 98.439 0.0680291 100.239 0.0680291C101.97 0.0680291 103.769 0.272575 105.431 0.749847C106.4 1.02257 107.231 1.49985 107.923 2.18167C108.546 2.7953 108.892 3.61348 108.892 4.49985C108.961 5.31803 108.408 6.06803 107.577 6.13621C107.023 6.27257 106.4 6.20439 105.846 5.86348C105.569 5.72712 105.362 5.45439 105.223 5.18167C104.808 4.02257 103.908 3.61348 102.731 3.47712C101.831 3.34076 100.931 3.34076 99.962 3.27257C97.3314 3.27257 94.77 3.27257 92.1394 3.27257C90.8934 3.27257 89.6473 3.34076 88.4012 3.5453C87.0167 3.81803 86.5321 4.36348 86.3937 5.72712C86.3245 6.40894 86.3245 7.09076 86.4629 7.77257C86.5321 8.59076 87.0859 9.20439 87.8474 9.40894C88.6781 9.68167 89.5781 9.74985 90.4088 9.74985C94.2162 9.74985 97.9544 9.74985 101.762 9.74985C103.146 9.74985 104.6 9.88621 105.985 10.2271C108.269 10.8408 109.446 12.3408 109.792 14.6589C110 15.8862 110 17.1135 109.723 18.3408C109.307 20.1817 107.854 21.6817 105.985 22.2271C104.739 22.6362 103.354 22.9089 102.039 22.9089C98.3005 22.9089 94.4931 22.9089 90.7549 22.9089C89.1627 22.9089 87.5705 22.7044 86.0476 22.3635C85.1476 22.1589 84.3169 21.7498 83.6247 21.2044C82.7939 20.5908 82.3094 19.6362 82.2401 18.6135C82.1017 17.5226 83.0016 16.7044 84.2477 16.8408C85.0784 16.8408 85.7707 17.318 86.0476 18.068C86.3245 18.7498 86.8783 19.2271 87.5705 19.3635C88.4705 19.6362 89.3704 19.7044 90.2703 19.7044C93.5932 19.7044 96.8468 19.7044 100.17 19.7044C101.485 19.7726 102.8 19.6362 104.116 19.2953C105.362 18.9544 105.915 18.3408 105.985 17.0453C106.054 16.3635 105.985 15.6817 105.915 14.9998C105.846 14.318 105.362 13.7044 104.669 13.4998C103.7 13.0908 102.662 12.9544 101.623 12.9544C99.7543 12.9544 97.6775 12.9544 95.67 12.9544Z" fill="white"/>
<path d="M61.6109 22.9086C60.0879 22.9086 58.4957 22.9768 56.9728 22.9086C55.1729 22.9086 53.373 22.5677 51.6424 21.9541C48.9425 21.0677 47.0042 18.6814 46.7273 15.8859C46.6581 15.2041 46.5889 14.4541 46.5889 13.7723C46.5889 12.2041 46.5889 10.6359 46.5889 9.06773C46.5889 7.84045 46.7273 6.61318 47.1427 5.38591C47.9042 3.34045 49.4964 1.77227 51.5731 1.09045C53.0269 0.544999 54.5498 0.20409 56.142 0.20409C59.188 0.135908 62.2339 0.067726 65.3491 0.135908C67.2874 0.135908 69.2258 0.340453 71.0949 0.95409C72.8947 1.43136 74.4869 2.59045 75.5253 4.15863C76.2868 5.31773 76.6329 6.68136 76.7022 8.045C76.7714 10.2268 76.7714 12.4768 76.7714 14.6586C76.7714 16.0223 76.4253 17.4541 75.8022 18.6814C74.9023 20.3859 73.3101 21.6814 71.441 22.2268C69.9872 22.7041 68.4643 22.9768 66.9413 23.045C65.2106 23.1132 63.48 23.1132 61.6801 23.1814V22.9086H61.6109ZM61.6109 3.27227C60.2264 3.27227 58.8419 3.20409 57.4573 3.27227C56.4882 3.27227 55.519 3.40863 54.5499 3.545C53.3038 3.74954 52.1269 4.43136 51.3655 5.45409C50.7424 6.40863 50.3963 7.49954 50.4655 8.65863C50.3963 10.3632 50.4655 11.9995 50.4655 13.7041C50.4655 14.2495 50.5347 14.8632 50.604 15.4086C50.8116 17.3177 52.2654 18.8859 54.2037 19.295C55.3806 19.5677 56.5574 19.7041 57.7342 19.7041C60.2956 19.7041 62.9262 19.7723 65.4876 19.7041C66.5259 19.7041 67.4951 19.5677 68.5335 19.4314C69.6411 19.295 70.6795 18.7495 71.3718 17.9314C72.2025 16.9768 72.6871 15.7495 72.6178 14.4541C72.6871 12.6132 72.6871 10.8405 72.6178 8.99954C72.6178 8.38591 72.5486 7.77227 72.4101 7.15863C72.1332 5.52227 70.9564 4.15863 69.295 3.68136C68.2566 3.34045 67.2182 3.20409 66.1106 3.20409C64.7261 3.20409 63.1339 3.27227 61.6109 3.27227Z" fill="white"/>
<path d="M4.22322 11.5225C4.22322 14.6588 4.22322 17.7952 4.22322 20.9315C4.22322 21.2725 4.154 21.6134 4.01555 21.8861C3.66942 22.7043 2.70025 23.1815 1.80031 22.9088C0.900377 22.7725 0.277344 22.0225 0.277344 21.2043C0.277344 19.7725 0.277344 18.4088 0.277344 16.977C0.277344 11.9997 0.277344 6.95427 0.277344 1.90882C0.277344 -0.0684539 2.21567 -0.341181 3.25406 0.204274C3.87709 0.545183 4.22322 1.227 4.154 1.90882C4.154 4.227 4.154 6.54518 4.154 8.93155L4.22322 11.5225Z" fill="white"/>
</g>
<defs>
<clipPath id="clip0_1503_856">
<rect width="110" height="51" fill="white"/>
</clipPath>
</defs>
</svg>
